<?xml version="1.0" encoding="utf-8"?>
<!-- Generator: Adobe Illustrator 24.0.0, SVG Export Plug-In . SVG Version: 6.00 Build 0)  -->
<svg version="1.1" xmlns="http://www.w3.org/2000/svg" xmlns:xlink="http://www.w3.org/1999/xlink" x="0px" y="0px"
	 viewBox="0 0 1920 1080" style="enable-background:new 0 0 1920 1080;" xml:space="preserve">
<style type="text/css">
	.st0{display:none;}
	.st1{display:inline;fill:#E8F5FF;}
	.st2{fill:#FFA268;}
	.st3{fill:#022900;}
	.st4{fill:#025300;}
	.st5{fill:#794000;}
	.st6{fill:#533500;}
	.st7{fill:#FF0C0C;}
	.st8{fill:#241700;}
	.st9{fill:#FFA139;}
	.st10{fill:#4A2B00;}
	.st11{fill:#FFB203;}
	.st12{fill:#FFFFFF;}
	.st13{fill:#470001;}
	.st14{fill:#8A0000;}
	.st15{fill:#A63700;}
	.st16{fill:#FF4747;}
	.st17{fill:#C4DCFF;}
	.st18{fill:#FFC380;}
	.st19{fill:#FFFFFF;stroke:#FFC380;stroke-miterlimit:10;}
	.st20{fill:#07002B;}
	.st21{fill:#5A2800;}
	.st22{fill:#FF6327;}
	.st23{fill:#934100;}
	.st24{fill:#00194C;}
	.st25{fill:#2B7DFF;}
	.st26{fill:#DEF1FF;}
	.st27{fill:#5F000A;}
	.st28{fill:#623900;}
	.st29{fill:#FFA24F;}
	.st30{fill:#003EAB;}
	.st31{opacity:0.56;fill:#87F5FF;}
	.st32{fill:#E60000;}
	.st33{fill:#277500;}
</style>
<g id="Layer_2" class="st0">
	<rect class="st1" width="1920" height="1080"/>
</g>
<g id="Layer_1">
	<path class="st2" d="M537.39,340.69L537.39,340.69c-2.77-3.03-2.55-7.73,0.48-10.49l29.33-26.78c3.03-2.77,7.73-2.55,10.49,0.48v0
		c2.77,3.03,2.55,7.73-0.48,10.49l-29.33,26.78C544.85,343.93,540.16,343.71,537.39,340.69z"/>
	<path class="st3" d="M567,307.33L567,307.33c1.85-5.03,7.42-7.61,12.44-5.76l52.26,19.18c5.03,1.85,7.61,7.42,5.76,12.44l0,0
		c-1.84,5.03-7.42,7.61-12.44,5.76l-52.26-19.18C567.74,317.93,565.16,312.36,567,307.33z"/>
	<path class="st2" d="M600.93,235.31L600.93,235.31c3.83-1.46,8.12,0.47,9.58,4.3l8.96,23.57c1.46,3.83-0.47,8.12-4.3,9.58h0
		c-3.83,1.46-8.12-0.47-9.58-4.3l-8.96-23.57C595.17,241.06,597.1,236.77,600.93,235.31z"/>
	<path class="st3" d="M681.99,267.54L681.99,267.54c0,3.96-3.21,7.16-7.16,7.16h-60.74c-3.96,0-7.16-3.21-7.16-7.16v0
		c0-3.96,3.21-7.16,7.16-7.16h60.74C678.78,260.38,681.99,263.59,681.99,267.54z"/>
	
		<ellipse transform="matrix(0.4193 -0.9079 0.9079 0.4193 114.4539 774.6865)" class="st4" cx="662.77" cy="297.88" rx="57.39" ry="33.88"/>
	<ellipse class="st5" cx="689.4" cy="161.56" rx="30.07" ry="31.88"/>
	
		<ellipse transform="matrix(0.9901 -0.14 0.14 0.9901 -20.6145 99.7108)" class="st6" cx="698.16" cy="196.32" rx="15.99" ry="13.31"/>
	
		<ellipse transform="matrix(0.9901 -0.14 0.14 0.9901 -23.0967 100.2418)" class="st6" cx="700.69" cy="214.23" rx="10.33" ry="8.6"/>
	
		<ellipse transform="matrix(0.9901 -0.14 0.14 0.9901 -24.5442 100.4985)" class="st6" cx="701.79" cy="224.64" rx="10.33" ry="8.6"/>
	
		<ellipse transform="matrix(0.9901 -0.14 0.14 0.9901 -26.1884 100.8502)" class="st6" cx="703.46" cy="236.5" rx="10.33" ry="8.6"/>
	
		<ellipse transform="matrix(0.9901 -0.14 0.14 0.9901 -28.2156 101.2839)" class="st6" cx="705.53" cy="251.12" rx="10.33" ry="8.6"/>
	<ellipse transform="matrix(0.9901 -0.14 0.14 0.9901 -29.6737 101.5208)" class="st6" cx="706.49" cy="261.6" rx="6.85" ry="5.7"/>
	
		<ellipse transform="matrix(0.9901 -0.14 0.14 0.9901 -27.3237 101.0682)" class="st7" cx="704.45" cy="244.67" rx="6.77" ry="3.12"/>
	<circle class="st8" cx="633.21" cy="187.14" r="16.19"/>
	<path class="st9" d="M411.84,292.95l38.77,13.13c5.26,1.78,8.08,7.49,6.3,12.75l0,0c-1.78,5.26-7.49,8.08-12.75,6.3L405.39,312
		c-5.26-1.78-8.08-7.49-6.3-12.75l0,0C400.87,293.99,406.58,291.17,411.84,292.95z"/>
	<path class="st9" d="M459.89,317.64l4.45,26.18c0.93,5.48-2.75,10.67-8.23,11.6h0c-5.48,0.93-10.67-2.75-11.6-8.23l-4.45-26.18
		c-0.93-5.48,2.75-10.67,8.23-11.6l0,0C453.77,308.48,458.96,312.17,459.89,317.64z"/>
	<path class="st10" d="M97.06,272.39l-1.29-1.51c-1.74-2.05-1.5-5.13,0.56-6.87l31.37-26.68c2.05-1.74,5.13-1.5,6.87,0.56l1.29,1.51
		c1.74,2.05,1.5,5.13-0.56,6.87l-31.37,26.68C101.88,274.69,98.81,274.44,97.06,272.39z"/>
	<circle class="st11" cx="155.77" cy="253.47" r="35.91"/>
	<path class="st12" d="M157.43,221.82c-7.96,0-15.22,3.05-20.66,8.04c4.57-2.71,9.9-4.28,15.59-4.28
		c16.88,0,30.57,13.69,30.57,30.57c0,8.92-3.82,16.95-9.92,22.53c8.97-5.33,14.98-15.11,14.98-26.29
		C188.01,235.51,174.32,221.82,157.43,221.82z"/>
	<path class="st2" d="M381.99,307.94h-12.25c-10.04,0-18.19-8.14-18.19-18.19v-54c0-10.04,8.14-18.19,18.19-18.19h12.25
		c10.04,0,18.19,8.14,18.19,18.19v54C400.18,299.8,392.03,307.94,381.99,307.94z"/>
	<path class="st9" d="M445.21,408.18L445.21,408.18c0,2.01-1.63,3.65-3.65,3.65h-13.41c-2.01,0-3.65-1.63-3.65-3.65v0
		c0-2.01,1.63-3.65,3.65-3.65h13.41C443.58,404.54,445.21,406.17,445.21,408.18z"/>
	<path class="st13" d="M425.49,409.55L425.49,409.55c-3.86,2.97-9.4,2.26-12.37-1.6l-25.71-33.35c-2.97-3.86-2.26-9.4,1.6-12.37h0
		c3.86-2.97,9.4-2.26,12.37,1.6l25.71,33.35C430.07,401.04,429.35,406.58,425.49,409.55z"/>
	<path class="st2" d="M412.95,290.17c-8.14-4.9-17.68-7.73-27.88-7.73c-16.27,0-30.85,7.19-40.77,18.56
		c14.23-8,31.13-12.64,49.27-12.64C400.22,288.36,406.71,288.99,412.95,290.17z"/>
	<path class="st14" d="M385.08,390.65c29.88,0,54.1-24.22,54.1-54.1c0-19.68-10.51-36.91-26.23-46.37
		c-6.25-1.18-12.73-1.81-19.38-1.81c-18.14,0-35.04,4.64-49.27,12.64c-8.3,9.51-13.33,21.94-13.33,35.55
		C330.97,366.42,355.2,390.65,385.08,390.65z"/>
	<circle class="st2" cx="352.1" cy="232.08" r="57.16"/>
	<path class="st15" d="M338.23,273.73c0-5.89,7.2-10.66,16.08-10.66c3.41,0,6.58,0.71,9.18,1.91c-3.32-5.45-11.37-9.3-20.78-9.3
		c-12.37,0-22.4,6.65-22.4,14.85c0,8.2,10.03,14.85,22.4,14.85c3.08,0,6.02-0.41,8.7-1.16C343.91,283.3,338.23,278.96,338.23,273.73
		z"/>
	<path class="st16" d="M365.11,270.52c0-1.96-0.58-3.83-1.62-5.55c-2.6-1.2-5.77-1.91-9.18-1.91c-8.88,0-16.08,4.77-16.08,10.66
		c0,5.23,5.68,9.57,13.18,10.48C359.46,281.96,365.11,276.68,365.11,270.52z"/>
	<ellipse class="st17" cx="160.56" cy="424.95" rx="73.94" ry="6.43"/>
	<ellipse class="st17" cx="394.24" cy="424.14" rx="96.29" ry="5.93"/>
	<ellipse class="st17" cx="624.33" cy="420.91" rx="96.29" ry="5.93"/>
	<path class="st10" d="M123.96,378.2l-2.12-1.45c-2.88-1.97-3.61-5.89-1.65-8.77l27.17-39.74c1.97-2.88,5.89-3.61,8.77-1.65
		l2.12,1.45c2.88,1.97,3.61,5.89,1.65,8.77l-27.17,39.74C130.77,379.43,126.84,380.17,123.96,378.2z"/>
	<path class="st10" d="M125.48,426.16l-0.46,0.01c-3.48,0.07-6.37-2.69-6.44-6.17l-0.91-42.85c-0.07-3.48,2.69-6.37,6.17-6.44
		l0.46-0.01c3.48-0.07,6.37,2.69,6.44,6.17l0.91,42.85C131.72,423.2,128.96,426.08,125.48,426.16z"/>
	<path class="st11" d="M170.13,254.1h-7.77c-10.52,0-19.05,8.53-19.05,19.05v51.3c0,10.52,8.53,19.05,19.05,19.05h7.77
		c10.52,0,19.05-8.53,19.05-19.05v-51.3C189.18,262.63,180.65,254.1,170.13,254.1z"/>
	<circle class="st10" cx="134.95" cy="232.48" r="12.42"/>
	<path class="st10" d="M51.75,266.13l0.12-1.49c0.24-2.97,2.85-5.19,5.82-4.95l39.99,3.23c2.97,0.24,5.19,2.85,4.95,5.82l-0.12,1.49
		c-0.24,2.97-2.85,5.19-5.82,4.95l-39.99-3.23C53.72,271.71,51.51,269.1,51.75,266.13z"/>
	<path class="st18" d="M130.15,245.9H119.7c-14.15,0-25.62-11.47-25.62-25.62V176.9c0-14.15,11.47-25.62,25.62-25.62h10.44
		c14.15,0,25.62,11.47,25.62,25.62v43.38C155.77,234.43,144.3,245.9,130.15,245.9z"/>
	<circle class="st19" cx="101.6" cy="176" r="11.91"/>
	<circle class="st20" cx="107.27" cy="177.67" r="3.54"/>
	<path class="st21" d="M105.74,167.08l-9.82-3.8c-1.3-0.5-1.94-1.96-1.44-3.25l0.26-0.67c0.5-1.3,1.96-1.94,3.25-1.44l9.82,3.8
		c1.3,0.5,1.94,1.96,1.44,3.25l-0.26,0.67C108.49,166.94,107.04,167.58,105.74,167.08z"/>
	<path class="st22" d="M146.85,222.78c1.02-0.39,1.57-0.81,1.57-1.25c0-2.19-13.83-3.96-30.9-3.96s-30.9,1.77-30.9,3.96
		c0,0.44,0.55,0.86,1.57,1.25c4.08-1.58,15.67-2.72,29.33-2.72S142.77,221.2,146.85,222.78z"/>
	<ellipse class="st12" cx="117.52" cy="222.78" rx="29.33" ry="2.72"/>
	<path class="st22" d="M123.59,208.12v-36.26c0-3.37-1.75-6.1-3.91-6.1h-4.33c-2.16,0-3.91,2.73-3.91,6.1v36.26
		c0,3.37,1.75,6.1,3.91,6.1h4.33C121.84,214.22,123.59,211.49,123.59,208.12z"/>
	<circle class="st12" cx="131.03" cy="177.67" r="11.91"/>
	<circle class="st20" cx="131.03" cy="177.67" r="3.28"/>
	<path class="st23" d="M120.04,298.35l-1.41-1.66c-1.91-2.25-1.64-5.62,0.61-7.53l39.19-33.33c2.25-1.91,5.62-1.64,7.53,0.61
		l1.41,1.66c1.91,2.25,1.64,5.62-0.61,7.53l-39.19,33.33C125.32,300.87,121.95,300.59,120.04,298.35z"/>
	<path class="st23" d="M63.95,290.72l0.13-1.61c0.27-3.31,3.17-5.78,6.48-5.51l49.93,4.03c3.31,0.27,5.78,3.17,5.51,6.48l-0.13,1.61
		c-0.27,3.31-3.17,5.78-6.48,5.51l-49.93-4.03C66.15,296.94,63.69,294.03,63.95,290.72z"/>
	<path class="st23" d="M175.71,390.78h-2.57c-3.48,0-6.31-2.82-6.31-6.31v-48.14c0-3.48,2.82-6.31,6.31-6.31h2.57
		c3.48,0,6.31,2.82,6.31,6.31v48.14C182.02,387.96,179.2,390.78,175.71,390.78z"/>
	<path class="st23" d="M202.59,421.84l-0.01,0.01c-2.65,2.26-6.64,1.94-8.89-0.72l-23.71-27.88c-2.26-2.65-1.94-6.64,0.72-8.89
		l0.01-0.01c2.65-2.26,6.64-1.94,8.89,0.72l23.71,27.88C205.57,415.6,205.25,419.58,202.59,421.84z"/>
	<circle class="st23" cx="166.83" cy="257.12" r="7.47"/>
	<ellipse class="st24" cx="123.59" cy="143.29" rx="34.85" ry="13.82"/>
	<ellipse class="st24" cx="155.77" cy="157.12" rx="10.86" ry="13.37"/>
	<path class="st21" d="M142.3,164.85l-16.69,4.4c-1.26,0.33-2.54-0.42-2.87-1.67l0,0c-0.33-1.26,0.42-2.54,1.67-2.87l16.69-4.4
		c1.26-0.33,2.54,0.42,2.87,1.67l0,0C144.31,163.23,143.56,164.52,142.3,164.85z"/>
	<path class="st25" d="M357.98,269.14h-69.62c-16.63,0-30.11-13.48-30.11-30.11v0c0-16.63,13.48-30.11,30.11-30.11h69.62
		c16.63,0,30.11,13.48,30.11,30.11v0C388.09,255.66,374.61,269.14,357.98,269.14z"/>
	<circle class="st26" cx="294.94" cy="240.57" r="15.11"/>
	<circle cx="294.21" cy="240.57" r="3.74"/>
	<circle class="st26" cx="344.69" cy="240.57" r="15.11"/>
	<circle cx="343.96" cy="240.57" r="3.74"/>
	<path class="st14" d="M431.17,161.88c-4.23-10.89-15.41-17.94-27.57-16.86c-5.84-5.35-14.05-8.11-22.59-6.8
		c-0.7,0.11-1.39,0.25-2.07,0.41c-5.38-3.43-12.02-5-18.88-3.95c-4,0.61-7.65,2.06-10.82,4.12c-3.64-1.02-7.57-1.3-11.56-0.69
		c-14.79,2.27-24.97,15.87-22.75,30.38s16.02,24.42,30.81,22.15c4-0.61,7.65-2.06,10.82-4.12c3.64,1.02,7.57,1.3,11.56,0.69
		c0.7-0.11,1.39-0.25,2.07-0.41c4.91,3.14,10.88,4.71,17.11,4.16c2.1,1.92,4.5,3.51,7.11,4.7c4.43,11.42,16.51,18.62,29.34,16.65
		c14.79-2.27,24.97-15.87,22.75-30.38C445.11,172.79,439.11,165.48,431.17,161.88z"/>
	<circle class="st15" cx="405.54" cy="234.01" r="12.04"/>
	<circle class="st16" cx="404.45" cy="234.69" r="4.34"/>
	<path class="st2" d="M389.67,428.55L389.67,428.55c-1.49,1.36-3.79,1.25-5.15-0.23l-9.04-9.9c-1.36-1.49-1.25-3.79,0.23-5.15l0,0
		c1.49-1.36,3.79-1.25,5.15,0.23l9.04,9.9C391.27,424.89,391.16,427.19,389.67,428.55z"/>
	<path class="st27" d="M368.42,417.07L368.42,417.07c-4.22-2.44-5.66-7.83-3.23-12.05l21.05-36.47c2.44-4.22,7.83-5.66,12.05-3.23
		l0,0c4.22,2.44,5.66,7.83,3.23,12.05l-21.05,36.47C378.03,418.06,372.63,419.5,368.42,417.07z"/>
	<path class="st14" d="M319.34,204.18h-25.17c-1.81,0-3.28-1.47-3.28-3.28v0c0-1.81,1.47-3.28,3.28-3.28h25.17
		c1.81,0,3.28,1.47,3.28,3.28v0C322.63,202.71,321.16,204.18,319.34,204.18z"/>
	<path class="st14" d="M373.31,209.09l-21.22-3.06c-1.87-0.27-3.17-2-2.9-3.87v0c0.27-1.87,2-3.17,3.87-2.9l21.22,3.06
		c1.87,0.27,3.17,2,2.9,3.87v0C376.91,208.06,375.18,209.36,373.31,209.09z"/>
	<circle class="st2" cx="310.94" cy="262.19" r="2.51"/>
	<circle class="st2" cx="321.29" cy="262.19" r="2.51"/>
	<path class="st28" d="M117.84,243.65L117.84,243.65c-1.12,0-2.02-0.91-2.02-2.02v-7.93c0-1.12,0.91-2.02,2.02-2.02h0
		c1.12,0,2.02,0.91,2.02,2.02v7.93C119.87,242.74,118.96,243.65,117.84,243.65z"/>
	<path class="st29" d="M114.3,208.12v-36.26c0-3.37,1.75-6.1,3.91-6.1h-2.85c-2.16,0-3.91,2.73-3.91,6.1v36.26
		c0,3.37,1.75,6.1,3.91,6.1h2.85C116.04,214.22,114.3,211.49,114.3,208.12z"/>
	<path class="st2" d="M378.33,320.95l-28.94,28.94c-3.93,3.93-10.29,3.93-14.22,0v0c-3.93-3.93-3.93-10.29,0-14.22l28.94-28.94
		c3.93-3.93,10.29-3.93,14.22,0h0C382.25,310.66,382.25,317.02,378.33,320.95z"/>
	<path class="st2" d="M337.89,355.22H294.9c-4.99,0-9.03-4.04-9.03-9.03l0,0c0-4.99,4.04-9.03,9.03-9.03h42.98
		c4.99,0,9.03,4.04,9.03,9.03l0,0C346.92,351.18,342.87,355.22,337.89,355.22z"/>
	<ellipse class="st2" cx="662.28" cy="196.81" rx="41.79" ry="55.88"/>
	<g>
		<path class="st15" d="M661.51,226.9c-0.18,1.29-0.91,2.26-1.79,2.26c-1.01,0-1.83-1.28-1.83-2.86c0-0.25,0.02-0.49,0.06-0.71
			c-0.02-0.01-0.04-0.01-0.07-0.02c0.01,0.09,0.01,0.19,0.01,0.29c0,1.58-0.82,2.86-1.83,2.86s-1.83-1.28-1.83-2.86
			c0-0.3,0.03-0.59,0.09-0.87c-0.03,0-0.06-0.01-0.09-0.01c0.01,0.1,0.01,0.19,0.01,0.29c0,1.58-0.82,2.86-1.83,2.86
			c-1.01,0-1.83-1.28-1.83-2.86c0,1.58-0.82,2.86-1.83,2.86c-0.98,0-1.78-1.21-1.83-2.73c-0.16,1.32-0.9,2.33-1.8,2.33
			c-1.01,0-1.83-1.28-1.83-2.86c0,0,0-0.01,0-0.01c-0.03,0-0.05,0-0.08,0.01c0.03,0.2,0.04,0.41,0.04,0.62
			c0,1.58-0.82,2.86-1.83,2.86c-1.01,0-1.83-1.28-1.83-2.86c0-0.06,0-0.11,0-0.17c-0.03,0.01-0.06,0.01-0.09,0.02
			c0.02,0.17,0.03,0.34,0.03,0.52c0,1.58-0.82,2.86-1.83,2.86c-0.92,0-1.68-1.06-1.81-2.44c-1.22,0.49-1.92,1.05-1.92,1.65
			c0,1.47,4.15,2.71,9.88,3.13c0.26-1.1,0.93-1.88,1.72-1.88c0.8,0,1.47,0.8,1.72,1.91c0.25-1.11,0.93-1.91,1.72-1.91
			c0.81,0,1.5,0.83,1.74,1.97c6.53-0.29,11.47-1.62,11.47-3.22C662.23,227.58,661.98,227.23,661.51,226.9z"/>
		<path class="st15" d="M646.96,224.68c0,0-0.01,0-0.01,0c0,0.02,0,0.04,0,0.06C646.95,224.72,646.95,224.7,646.96,224.68z"/>
		<path class="st12" d="M637.71,228.73c1.01,0,1.83-1.28,1.83-2.86c0-0.18-0.01-0.35-0.03-0.52c-1.45,0.26-2.68,0.58-3.61,0.95
			C636.03,227.67,636.79,228.73,637.71,228.73z"/>
		<path class="st12" d="M641.43,228.36c1.01,0,1.83-1.28,1.83-2.86c0-0.21-0.02-0.42-0.04-0.62c-1.31,0.11-2.52,0.27-3.61,0.46
			c0,0.05,0,0.11,0,0.17C639.6,227.07,640.42,228.36,641.43,228.36z"/>
		<path class="st12" d="M652.4,228.14c1.01,0,1.83-1.28,1.83-2.86c0-0.1,0-0.19-0.01-0.29c-1.13-0.13-2.34-0.22-3.61-0.27
			c-0.02,0.18-0.04,0.37-0.04,0.56C650.57,226.86,651.39,228.14,652.4,228.14z"/>
		<path class="st12" d="M656.06,228.73c1.01,0,1.83-1.28,1.83-2.86c0-0.1,0-0.19-0.01-0.29c-1.05-0.23-2.25-0.43-3.56-0.58
			c-0.06,0.27-0.09,0.56-0.09,0.87C654.23,227.45,655.05,228.73,656.06,228.73z"/>
		<path class="st12" d="M659.72,229.17c0.88,0,1.61-0.97,1.79-2.26c-0.72-0.5-1.96-0.95-3.56-1.31c-0.04,0.23-0.06,0.47-0.06,0.71
			C657.89,227.89,658.71,229.17,659.72,229.17z"/>
		<path class="st12" d="M649.03,229.19c-0.8,0-1.47,0.8-1.72,1.91c-0.25-1.11-0.93-1.91-1.72-1.91c-0.79,0-1.46,0.78-1.72,1.88
			c1.09,0.08,2.23,0.13,3.42,0.15c0.18,0,0.36,0,0.55,0.01c0.09,0,0.19,0,0.28,0c0.9,0,1.79-0.02,2.66-0.06
			C650.53,230.02,649.84,229.19,649.03,229.19z"/>
		<path class="st12" d="M645.12,227.74c0.89,0,1.64-1,1.8-2.33c0.05,1.52,0.85,2.73,1.83,2.73c1.01,0,1.83-1.28,1.83-2.86
			c0-0.19-0.01-0.38-0.04-0.56c-0.79-0.03-1.6-0.05-2.43-0.05c-0.39,0-0.77,0-1.15,0.01c0,0.02-0.01,0.04-0.01,0.06
			c0-0.02,0-0.04,0-0.06c-1.27,0.02-2.5,0.09-3.65,0.18c0,0,0,0.01,0,0.01C643.29,226.46,644.11,227.74,645.12,227.74z"/>
	</g>
	<path class="st2" d="M649.22,235.79"/>
	<circle class="st13" cx="631.42" cy="186.87" r="16.19"/>
	<g>
		<path class="st30" d="M631.42,173.54c-7.36,0-13.33,5.97-13.33,13.33c0,0.73,0.06,1.44,0.17,2.14l15.3-15.3
			C632.86,173.61,632.15,173.54,631.42,173.54z"/>
		<path class="st30" d="M643.91,182.22l-17.15,17.15c0.67,0.25,1.36,0.44,2.07,0.58l15.67-15.67
			C644.35,183.57,644.16,182.88,643.91,182.22z"/>
		<path class="st30" d="M644.72,187.69l-12.49,12.49C638.95,199.77,644.32,194.4,644.72,187.69z"/>
		<path class="st30" d="M640.71,177.32l-18.84,18.84c0.74,0.76,1.57,1.43,2.47,2l18.37-18.37
			C642.14,178.89,641.47,178.06,640.71,177.32z"/>
		<path class="st30" d="M633.56,173.72l-15.3,15.3c0.45,2.76,1.74,5.23,3.6,7.15l18.84-18.84
			C638.79,175.46,636.32,174.16,633.56,173.72z"/>
		<path class="st31" d="M633.56,173.72l-15.3,15.3c0.45,2.76,1.74,5.23,3.6,7.15l18.84-18.84
			C638.79,175.46,636.32,174.16,633.56,173.72z"/>
		<path class="st30" d="M642.71,179.79l-18.37,18.37c0.76,0.48,1.57,0.88,2.43,1.2l17.15-17.15
			C643.59,181.36,643.19,180.55,642.71,179.79z"/>
		<path class="st31" d="M642.71,179.79l-18.37,18.37c0.76,0.48,1.57,0.88,2.43,1.2l17.15-17.15
			C643.59,181.36,643.19,180.55,642.71,179.79z"/>
		<path class="st30" d="M644.49,184.29l-15.67,15.67c0.84,0.16,1.7,0.25,2.59,0.25c0.27,0,0.55-0.01,0.82-0.03l12.49-12.49
			c0.02-0.27,0.03-0.54,0.03-0.82C644.75,185.99,644.66,185.12,644.49,184.29z"/>
		<path class="st31" d="M644.49,184.29l-15.67,15.67c0.84,0.16,1.7,0.25,2.59,0.25c0.27,0,0.55-0.01,0.82-0.03l12.49-12.49
			c0.02-0.27,0.03-0.54,0.03-0.82C644.75,185.99,644.66,185.12,644.49,184.29z"/>
	</g>
	<circle class="st8" cx="670.67" cy="187.87" r="16.19"/>
	<circle class="st13" cx="668.89" cy="187.61" r="16.19"/>
	<g>
		<path class="st30" d="M668.89,174.28c-7.36,0-13.33,5.97-13.33,13.33c0,0.73,0.06,1.44,0.17,2.14l15.3-15.3
			C670.33,174.34,669.61,174.28,668.89,174.28z"/>
		<path class="st30" d="M681.38,182.95l-17.15,17.15c0.67,0.25,1.36,0.44,2.07,0.58l15.67-15.67
			C681.82,184.31,681.63,183.62,681.38,182.95z"/>
		<path class="st30" d="M682.19,188.42l-12.49,12.49C676.41,200.51,681.78,195.14,682.19,188.42z"/>
		<path class="st30" d="M678.18,178.05l-18.84,18.84c0.74,0.76,1.57,1.43,2.47,2l18.37-18.37
			C679.61,179.62,678.94,178.79,678.18,178.05z"/>
		<path class="st30" d="M671.03,174.45l-15.3,15.3c0.45,2.76,1.74,5.23,3.6,7.15l18.84-18.84
			C676.26,176.19,673.78,174.9,671.03,174.45z"/>
		<path class="st31" d="M671.03,174.45l-15.3,15.3c0.45,2.76,1.74,5.23,3.6,7.15l18.84-18.84
			C676.26,176.19,673.78,174.9,671.03,174.45z"/>
		<path class="st30" d="M680.17,180.52L661.8,198.9c0.76,0.48,1.57,0.88,2.43,1.2l17.15-17.15
			C681.06,182.1,680.65,181.29,680.17,180.52z"/>
		<path class="st31" d="M680.17,180.52L661.8,198.9c0.76,0.48,1.57,0.88,2.43,1.2l17.15-17.15
			C681.06,182.1,680.65,181.29,680.17,180.52z"/>
		<path class="st30" d="M681.96,185.02l-15.67,15.67c0.84,0.16,1.7,0.25,2.59,0.25c0.27,0,0.55-0.01,0.82-0.03l12.49-12.49
			c0.02-0.27,0.03-0.54,0.03-0.82C682.22,186.72,682.13,185.86,681.96,185.02z"/>
		<path class="st31" d="M681.96,185.02l-15.67,15.67c0.84,0.16,1.7,0.25,2.59,0.25c0.27,0,0.55-0.01,0.82-0.03l12.49-12.49
			c0.02-0.27,0.03-0.54,0.03-0.82C682.22,186.72,682.13,185.86,681.96,185.02z"/>
	</g>
	<path class="st32" d="M645.37,215.08L645.37,215.08c-3.47-0.82-5.62-4.3-4.8-7.78l1.51-6.41c0.82-3.47,4.3-5.62,7.78-4.8l0,0
		c3.47,0.82,5.62,4.3,4.8,7.78l-1.51,6.41C652.32,213.75,648.84,215.9,645.37,215.08z"/>
	<circle class="st2" cx="650.45" cy="213.45" r="2.34"/>
	<path class="st13" d="M652.08,189.17h-3.84c-0.72,0-1.3-0.58-1.3-1.3l0,0c0-0.72,0.58-1.3,1.3-1.3h3.84c0.72,0,1.3,0.58,1.3,1.3
		l0,0C653.38,188.59,652.8,189.17,652.08,189.17z"/>
	
		<ellipse transform="matrix(0.0655 -0.9979 0.9979 0.0655 357.9795 881.4294)" class="st5" cx="649.6" cy="249.58" rx="13.31" ry="4.65"/>
	
		<ellipse transform="matrix(0.9761 -0.2172 0.2172 0.9761 -15.7417 145.1472)" class="st5" cx="652.36" cy="144.18" rx="34.31" ry="14.52"/>
	
		<ellipse transform="matrix(0.4566 -0.8897 0.8897 0.4566 236.2355 689.0886)" class="st5" cx="682.19" cy="151.17" rx="14.52" ry="34.31"/>
	<path class="st2" d="M639.39,416.41L639.39,416.41c-2.85,1.89-6.69,1.12-8.59-1.73l-18.49-27.81c-1.89-2.85-1.12-6.69,1.73-8.59
		l0,0c2.85-1.89,6.69-1.12,8.59,1.73l18.49,27.81C643.02,410.67,642.24,414.51,639.39,416.41z"/>
	<path class="st33" d="M615.71,387.49L615.71,387.49c-3.91-2.16-5.33-7.08-3.17-10.99l22.47-40.65c2.16-3.91,7.08-5.33,10.99-3.17
		l0,0c3.91,2.16,5.33,7.08,3.17,10.99l-22.47,40.65C624.54,388.24,619.62,389.66,615.71,387.49z"/>
	<path class="st2" d="M604.63,280.81L604.63,280.81c1.66-2.99,5.43-4.07,8.42-2.41l29.2,16.2c2.99,1.66,4.07,5.43,2.41,8.42v0
		c-1.66,2.99-5.43,4.07-8.42,2.41l-29.2-16.2C604.05,287.58,602.97,283.81,604.63,280.81z"/>
	<path class="st33" d="M635.06,302.23L635.06,302.23c-2.29-3.84-1.04-8.8,2.8-11.09l39.88-23.8c3.84-2.29,8.8-1.04,11.09,2.8v0
		c2.29,3.84,1.04,8.8-2.8,11.09l-39.88,23.8C642.32,307.32,637.35,306.06,635.06,302.23z"/>
	<ellipse class="st9" cx="702.33" cy="202.29" rx="8.05" ry="9.09"/>
	<circle class="st18" cx="702.63" cy="201.86" r="4.8"/>
</g>
</svg>
